<?xml version="1.0" encoding="UTF-8"?>
<!DOCTYPE svg PUBLIC "-//W3C//DTD SVG 1.1//EN" "http://www.w3.org/Graphics/SVG/1.1/DTD/svg11.dtd">
<!-- Creator: CorelDRAW -->
<svg xmlns="http://www.w3.org/2000/svg" xml:space="preserve" width="262.51mm" height="61.037mm" version="1.1" style="shape-rendering:geometricPrecision; text-rendering:geometricPrecision; image-rendering:optimizeQuality; fill-rule:evenodd; clip-rule:evenodd"
viewBox="0 0 25623.85 5957.89"
 xmlns:xlink="http://www.w3.org/1999/xlink"
 xmlns:xodm="http://www.corel.com/coreldraw/odm/2003">
 <defs>
  <style type="text/css">
   <![CDATA[
    .str0 {stroke:#6f2da8;stroke-width:137.74;stroke-miterlimit:22.9256}
    .fil0 {fill:none}
   ]]>
  </style>
 </defs>
 <g id="Layer_x0020_1">
  <metadata id="CorelCorpID_0Corel-Layer"/>
  <path class="fil0 str0" d="M5.58 5833.23c0,0 1073.94,-87.31 1196.19,-26.2 122.25,61.11 -515.14,244.5 -436.57,-270.66 78.59,-515.16 410.38,-2654.36 1012.85,-2628.16 602.47,26.2 1047.76,2505.9 1047.76,2776.58 0,270.68 -358.01,96.05 -436.58,-26.19 -78.58,-122.23 -209.54,-2462.23 -628.65,-2505.9 -419.11,-43.66 -812.02,2296.36 -523.88,2505.9 288.14,209.54 1746.26,17.45 1746.26,17.45 0,0 139.71,-1763.73 -34.92,-1807.38 -174.63,-43.66 -270.69,122.25 619.92,139.7 890.6,17.45 2776.58,-34.94 2776.58,-34.94 0,0 139.69,-61.1 183.35,-157.15 43.67,-96.05 -3221.86,43.65 -3379.02,-8.74 -157.17,-52.39 -375.46,-227 -148.44,-323.06 227.01,-96.05 1004.11,-26.2 1004.11,-26.2 0,0 4.55,-217.58 95.89,-237.57 91.34,-19.97 174.13,-2.85 174.13,-2.85 0,0 -14.29,-165.54 14.26,-182.68 28.54,-17.13 -17.12,-148.42 31.4,-168.41 48.52,-19.99 122.74,88.48 165.55,74.21 42.82,-14.27 79.93,-162.7 154.14,-139.87 74.21,22.83 114.2,176.97 159.86,162.7 45.66,-14.27 134.15,-174.11 185.53,-111.32 51.38,62.79 31.42,336.83 34.26,373.93 2.84,37.1 139.85,22.83 142.71,71.35 2.86,48.52 -22.83,168.41 91.34,176.97 114.18,8.56 856.31,-17.12 936.25,-8.56 79.92,8.56 156.99,39.95 142.72,122.74 -14.27,82.78 -57.39,1953.58 11.51,2056.93 68.9,103.35 218.18,97.61 195.21,109.09 -22.96,11.49 -947.34,74.64 -964.55,-57.41 -17.23,-132.06 5.72,-1377.93 -109.09,-1400.9 -114.82,-22.97 -68.89,1188.45 -132.05,1251.62 -63.15,63.15 51.68,-1039.18 -40.2,-1182.72 -91.86,-143.54 -1027.7,-51.68 -1062.16,-57.41 -34.45,-5.74 -11.48,1090.88 -57.41,1222.92 -45.94,132.05 -114.84,-1125.31 -252.63,-1131.05 -137.79,-5.75 -40.18,1263.1 -91.85,1326.25 -51.68,63.15 -235.41,-80.38 -459.32,-22.97 -223.91,57.41 -183.73,137.8 229.65,103.35 413.38,-34.45 2230.49,-82.1 2503.27,-103.35 272.76,-21.25 620.07,0 780.83,11.49 160.75,11.48 338.73,200.99 126.3,97.6 -212.42,-103.39 -246.89,-367.45 -390.42,-390.42 -143.53,-22.97 -229.64,109.08 -132.04,114.82 97.59,5.74 350.21,-183.73 493.75,-333 143.54,-149.27 430.61,-574.12 482.29,-1016.21 51.67,-442.09 97.6,-1607.59 74.63,-1687.97 -22.97,-80.38 8.74,40.81 42.53,44.57 33.79,3.76 259.03,15.02 277.8,-5.62 18.76,-20.64 41.29,-20.65 65.69,-58.2 24.4,-37.53 -18.95,3141.44 -18.95,3141.44 0,0 -237.04,79.03 -259.62,16.95 -22.58,-62.08 79.02,-451.55 -50.81,-485.42 -129.81,-33.87 -237.07,-11.29 -237.07,-11.29 0,0 101.6,547.5 56.45,587.02 -45.15,39.52 -112.49,73.18 -143.35,45.12 -30.86,-28.06 -112.24,-95.41 103.85,-61.74 216.08,33.68 993.64,64.53 1172.82,64.53 179.17,0 1119.79,74.65 1172.04,0 52.25,-74.65 -59.72,-201.57 -59.72,-201.57 0,0 307.89,3.71 333.87,-66.81 25.98,-70.52 -686.65,-697.79 -720.05,-1083.8 -33.4,-386 -89.09,-549.31 -96.51,-794.27 -7.42,-244.97 -59.38,-1068.95 -14.84,-1139.47 44.54,-70.52 103.91,-137.33 85.36,-66.81 -18.56,70.52 -348.9,100.23 -415.71,96.51 -66.81,-3.72 -22.27,682.93 -22.27,682.93l-18.56 1581.14 11.14 872.23 -215.27 25.98c0,0 14.84,-2809.69 -25.98,-2984.14 -40.82,-174.45 -133.62,-122.46 -137.33,-51.96 -3.72,70.51 -22.27,1332.46 -44.54,1354.73 -22.27,22.27 -66.81,29.7 -77.94,-18.55 -11.14,-48.26 -48.25,-1091.23 -48.25,-1117.21 0,-25.96 33.38,-222.68 -63.11,-233.82 -96.5,-11.14 -33.39,1499.48 -74.22,1544.02 -40.84,44.54 -222.71,-44.54 -315.5,0 -92.79,44.54 -89.07,434.25 -89.07,478.79 0,44.54 155.88,59.41 248.67,51.97 92.79,-7.43 367.45,40.84 471.37,37.12 103.93,-3.72 360.47,4.23 360.47,4.23 0,0 162.87,10.62 174.01,-26.49 11.13,-37.12 59.39,-233.84 59.39,-360.04 0,-126.19 70.52,-1094.92 33.4,-1135.74 -37.12,-40.82 -1239.68,-25.98 -1239.68,-25.98 0,0 -163.31,167.02 -70.52,270.95 92.8,103.93 727.34,-39.19 836.9,-8.46 109.56,30.74 235.77,-36.09 265.45,67.84 29.69,103.93 133.61,482.52 66.81,686.66 -66.81,204.14 -445.37,-152.17 -534.46,11.14 -89.09,163.3 3.69,1206.26 -22.28,1321.32 -25.97,115.06 -126.18,178.16 -244.96,163.31 -118.78,-14.85 -59.41,-63.09 256.09,-29.68 315.49,33.4 486.22,22.27 523.34,7.42 37.12,-14.86 70.52,-426.84 70.52,-471.37 0,-44.54 304.34,-74.23 326.62,-51.96 22.27,22.27 29.71,441.67 7.43,497.35 -22.28,55.67 257.04,56.28 345.16,55.67 88.12,-0.61 215.27,11.14 322.92,-11.14 107.64,-22.27 816.57,-66.81 890.79,-51.95 74.23,14.85 -70.51,89.08 -256.1,81.65 -185.58,-7.43 -541.9,-29.68 -538.18,-100.21 3.71,-70.52 244.96,-849.95 467.65,-1042.97 222.7,-193.01 143.56,-120.42 143.56,-120.42 0,0 486.22,107.63 512.2,44.54 25.99,-63.1 -868.53,-7.44 -1002.14,-25.98 -133.62,-18.56 -92.8,-319.2 -59.39,-345.18 33.4,-25.98 463.97,-55.68 460.25,-11.14 -3.71,44.54 -111.35,92.79 -107.64,-81.65 3.71,-174.45 -12.25,-140.4 -12.25,-140.4 0,0 -301.39,-255.34 -306.99,-273.5 -5.59,-18.15 -93.49,-99.08 72.56,-110.24 166.05,-11.16 957.27,-66.99 1000.52,-46.05 43.25,20.95 2258.25,-38.06 2458.04,-10.32 199.79,27.74 1248.69,-55.51 1304.18,27.74 55.5,83.26 -233.08,310.79 -238.63,421.79 -5.55,110.99 144.29,72.14 194.23,72.14 49.95,0 183.16,-55.5 210.9,-11.1 27.74,44.4 27.76,288.6 0,332.99 -27.75,44.38 -188.69,177.58 -244.19,177.58 -55.49,0 -310.79,-83.24 -554.98,-33.3 -244.17,49.95 -161.31,19.12 -239.24,64.11 -77.93,45 329.81,-104.58 482.12,19.17 152.31,123.75 260.2,282.41 320.5,488.67 60.28,206.25 355.3,566.32 238.76,627.38 -116.55,61.05 -338.54,-110.99 -505.05,-11.1 -166.51,99.9 -210.91,83.24 -399.6,88.8 -188.69,5.55 -227.55,-5.54 -382.95,-33.3 -155.4,-27.76 -1520.69,-66.62 -1615.04,-49.96 -94.34,16.66 -288.58,-27.74 -338.53,27.75 -49.96,55.5 1992.43,38.84 2031.28,-27.75 38.85,-66.59 -16.34,-367.37 -60.49,-386.69 -44.14,-19.32 -77.25,-16.56 -96.57,168.32 -19.32,184.89 0.01,262.13 13.8,215.22 13.79,-46.91 55.18,-306.3 -49.67,-364.25 -104.85,-57.93 -502.22,-44.13 -562.92,-11.02 -60.7,33.11 -77.27,-11.03 -91.06,118.66 -13.79,129.68 19.32,173.85 -41.39,195.91 -60.69,22.07 -71.73,33.13 -88.29,-24.82 -16.55,-57.96 -35.87,-154.53 -35.87,-198.68 0,-44.15 -8.28,-107.62 -8.28,-107.62 0,0 -496.69,-19.32 -535.33,5.52 -38.63,24.83 -104.86,57.93 -126.93,113.12 -22.07,55.19 22.07,193.15 -19.32,226.27 -41.39,33.12 -68.98,46.9 -88.3,8.28 -19.32,-38.62 -30.36,-309.04 -30.36,-336.63 0,-27.59 13.79,-68.99 -27.59,-77.27 -41.39,-8.28 -355.95,46.91 -427.69,102.1 -71.74,55.19 -19.31,309.04 -44.15,339.39 -24.84,30.36 -68.99,-41.4 -77.27,-71.74 -8.28,-30.34 -66.22,-259.37 -96.58,-270.41 -30.36,-11.05 -57.95,173.83 -126.93,242.82 -68.98,68.99 -77.71,41.4 -77.71,41.4 0,0 -29.99,-96.24 -3.15,-164.08 26.82,-67.84 159.02,-739.39 232.09,-746.34 73.07,-6.95 2171.18,-76.55 2205.98,-48.71 34.8,27.83 118.31,31.32 153.11,173.97 34.8,142.66 302.87,828.18 386.21,883.78 83.35,55.61 -326.93,-1028.44 -439.6,-1342.33 -112.67,-313.88 -361.12,-930.55 -466.96,-1004.16 -105.85,-73.62 -842.13,-575.2 -1412.75,115.04 -570.62,690.26 -837.51,1923.53 -878.94,2112.21 -41.43,188.66 -15.57,160.84 -15.57,160.84l67.63 -101.47c0,0 -63.65,-45.76 -133.29,-45.76 -69.65,0 -632.7,1.99 -666.51,-21.88 -33.82,-23.88 -53.73,-49.74 -37.8,-81.57 15.92,-31.83 131.32,-344.19 177.08,-419.8 45.76,-75.61 228.79,-491.43 228.79,-491.43 0,0 553.23,-999.43 669.23,-1139.22 116,-139.8 353.97,-618.68 1014.3,-826.89 660.32,-208.21 1403.93,520.52 1546.71,862.59 142.78,342.07 395.62,446.16 615.72,954.79 220.09,508.63 666.52,1248.1 666.52,1248.1 0,0 29.49,51.74 106.83,48.77 77.34,-2.99 505.67,-74.36 585.98,-68.43 80.3,5.94 95.18,47.6 95.18,47.6l-65.44 20.82 -151.7 -2.99c0,0 -294.48,0 -333.15,-74.35 -38.66,-74.36 -68.41,-582.99 -59.48,-663.31 8.92,-80.31 41.64,-1463.43 41.64,-1463.43l-62.46 -44.62 -38.67 17.84 181.45 17.85 719.8 -17.85 104.11 -20.82 0 -130.88 -62.45 0 -23.8 104.11c0,0 81.43,1881.89 4.53,1918.09 -76.9,36.19 -144.76,-1741.67 31.67,-1809.53 176.43,-67.87 266.9,190.01 425.24,140.24 158.34,-49.77 140.24,-131.2 140.24,-131.2 0,0 -30.99,-38.78 -56.87,-10.34 -25.88,28.43 131.91,600.07 93.11,682.85 -38.79,82.76 -90.53,137.08 -235.38,90.52 -144.84,-46.55 -183.47,-49.45 20.69,-59.48 204.16,-10.03 2144.85,-21.35 2144.85,-21.35l138.75 28.91 -57.82 121.41c0,0 -92.5,-213.91 -98.27,-624.39 -5.78,-410.48 40.46,-786.28 127.19,-809.41 86.73,-23.12 514.56,-242.82 1185.2,-57.82 670.64,185 -1011.76,208.14 -1162.08,-11.57 -150.31,-219.69 -109.84,-919.24 0,-959.71 109.84,-40.48 549.24,-265.95 792.07,-190.79 242.83,75.16 170.17,112.31 160.26,151.98 -9.92,39.67 -535.51,482.61 -872.69,62.8 -337.17,-419.81 -158.67,-485.93 -158.67,-575.17 0,-89.26 -82.65,-360.3 42.97,-386.75 125.62,-26.46 869.38,-363.62 1004.92,-161.98 135.53,201.65 -823.8,237.45 -991.41,74.15 -167.61,-163.3 -180.5,-266.44 -154.71,-348.09 25.78,-81.66 532.89,-494.21 618.84,-477.03 85.95,17.19 335.22,85.97 485.63,240.67 150.4,154.69 257.83,137.51 193.37,176.19 -64.45,38.67 -569.9,9.79 -616.59,9.79 -46.68,0 -196.55,-14.74 -230.97,14.75 -34.41,29.48 -68.81,27.02 34.4,66.34 103.2,39.32 184.3,49.14 235.89,46.68 51.6,-2.45 430.01,-9.82 430.01,-9.82l130.23 2.46 27.03 76.17c0,0 39.31,-12.29 -7.38,73.72 -46.68,86.01 -39.29,145.82 -103.19,142.52 -63.92,-3.3 -45.04,-25.4 -45.04,-25.4 0,0 35.82,-52.01 55.94,-16.01 20.13,35.99 1.4,87.11 0,153.14 -1.4,66.02 19.68,668.75 19.68,668.75 0,0 86.1,805.59 91.67,897.27 5.56,91.68 41.67,636.12 30.56,691.69 -11.11,55.56 61.11,1008.37 61.11,1008.37 0,0 -158.34,30.54 -194.45,-11.12 -36.11,-41.67 102.78,-38.88 230.57,-27.77 127.77,11.11 669.48,72.22 713.92,47.22 44.44,-25.01 86.11,-102.77 86.11,-127.78 0,-25.01 8.34,-130.56 -19.44,-138.9 -27.78,-8.33 -72.22,-33.33 -69.45,116.67 2.78,150.01 119.44,1233.38 97.22,1308.37 -22.22,75 -136.11,75 -177.77,72.23 -41.67,-2.78 -175.01,8.33 -188.9,-33.33 -13.9,-41.67 -52.78,-780.58 -186.12,-816.69 -133.35,-36.12 -63.91,669.46 -52.79,730.58 11.13,61.11 -263.88,119.45 -355.56,122.22 -91.69,2.78 -138.9,25.01 -147.24,-44.44 -8.33,-69.45 24.29,-1151.78 -29.16,-1185.8 -53.45,-34.03 -53.45,-106.89 -208.93,-106.89 -155.48,0 -364.4,-53.44 -427.57,9.71 -63.15,63.15 19.44,675.35 14.58,787.1 -4.85,111.75 53.44,383.83 -53.44,515.02 -106.89,131.18 -461.57,48.6 -558.75,68.03 -97.18,19.42 -58.3,-68.03 -111.75,-179.77 -53.44,-111.75 -87.45,-427.55 -223.49,-446.99 -136.04,-19.43 -140.91,121.48 -140.91,189.49 0,68.01 38.87,165.19 -29.15,199.2 -68.02,34.01 -256.51,31.62 -408.69,94.43 -152.19,62.8 -77.29,-62.81 -86.96,-101.46 -9.66,-38.65 -137.7,-439.66 -212.59,-475.89 -74.88,-36.24 -118.37,19.33 -125.62,84.55 -7.24,65.22 9.67,275.39 -38.64,328.53 -48.32,53.14 -251.24,128.04 -306.8,130.45 -55.57,2.42 -41.06,-111.11 -111.12,-169.09 -70.05,-57.98 -210.17,-263.32 -246.4,-260.9 -36.23,2.41 -108.7,-55.58 -103.88,55.55 4.83,111.13 26.58,248.83 33.82,333.37 7.24,84.54 55.55,287.47 7.24,323.71 -48.31,36.23 -152.2,26.56 -212.59,14.49 -60.39,-12.07 -82.14,-45.89 -4.83,-38.64 77.32,7.24 159.44,24.16 217.42,24.16 57.98,0 640.15,31.4 717.46,33.82 77.31,2.41 1323.81,24.14 1323.81,24.14l1497.75 -28.99 1152.29 2.42 780.27 43.49c0,0 72.48,19.34 12.08,-28.99 -60.39,-48.32 -60.39,-130.46 -60.39,-186.01 0,-55.55 -2.42,-301.96 -2.42,-301.96 0,0 21.75,-130.45 -38.64,-123.2 -60.39,7.25 -410.67,-2.41 -432.42,-2.41 -21.75,0 -137.71,-41.07 -152.2,41.06 -14.49,82.14 31.4,417.91 55.57,439.66 24.16,21.75 99.04,-381.68 96.63,-480.73 -2.41,-99.05 2.41,-193.24 -62.81,-241.56 -65.22,-48.33 -205.32,-222.25 -205.32,-222.25 0,0 135.28,-190.84 304.37,-318.88 169.09,-128.03 1669.25,-1475.98 1669.25,-1475.98 0,0 65.24,-48.33 70.08,-91.8 4.82,-43.48 -7.26,-144.94 -7.26,-144.94 0,0 -48.31,-53.14 -48.31,-14.5 0,38.65 -12.07,60.4 55.57,159.44 67.63,99.05 222.23,239.17 246.39,258.48 24.16,19.32 1159.55,1017 1159.55,1017l707.8 587.01c0,0 26.57,14.51 -57.98,86.97 -84.55,72.47 -338.2,236.73 -415.5,294.71 -77.3,57.98 -74.88,70.06 -161.85,101.46 -86.97,31.41 -931.54,64.18 -997.09,53.26 -65.55,-10.91 -1269.87,-27.31 -1272.61,-46.42 -2.74,-19.12 -311.32,-2.72 -308.6,-54.61 2.72,-51.89 2113.74,60.07 2438.72,98.3 324.98,38.23 527.08,24.58 570.77,24.58 43.69,0 87.38,0 87.38,0 0,0 -16.38,-98.3 -38.23,-98.3 -21.85,0 -60.07,420.56 -19.11,483.37 40.96,62.8 90.12,76.45 128.35,49.15 38.23,-27.3 117.44,-60.07 -5.46,-54.61 -122.89,5.47 -641.78,81.92 -644.51,40.96 -2.72,-40.96 -32.78,-286.73 -90.12,-243.04 -57.35,43.69 -76.47,262.15 -139.27,281.28 -62.81,19.11 -267.62,-319.51 -341.36,-308.59 -73.75,10.92 -122.9,84.65 -161.13,182.97 -38.23,98.31 -30.05,185.69 -106.52,125.62 -76.46,-60.07 -234.86,-357.75 -352.29,-324.98 -117.42,32.77 -103.76,204.83 -144.73,259.44 -40.98,54.61 -109.26,-5.46 -169.33,-84.66 -60.07,-79.2 -188.44,-207.54 -248.52,-172.05 -60.07,35.5 -84.66,101.05 -84.66,182.97 0,81.93 60.09,169.31 -16.38,133.81 -76.47,-35.49 -196.63,-286.74 -273.09,-297.66 -76.47,-10.92 -101.06,-46.42 -117.44,46.42 -16.38,92.85 -158.39,226.66 -185.71,264.9 -27.31,38.22 101.05,84.66 180.25,90.11 79.2,5.47 1982.65,10.92 1982.65,10.92l942.17 -19.11 297.67 13.66"/>
 </g>
</svg>
